:SAMPLES-PER-SECOND 30
:FULLY-SPECIFIED
:DEGREES
546
root  -34.4028 37.9264 20.8573 -15.5459 -78.3246 23.9137
RightUpLeg  -45.9159 -27.0577 12.3174
RightLeg  23.3615 3.52661 1.43545
RightFoot  8.74933 2.38753 -13.0696
RightToes  0.00048216 0.542163 -0.142577
Spine  52.9163 -5.34126 10.1803
Spine1  14.2438 -0.804202 -0.118252
HEad  -20.9592 -11.3766 3.67296
LeftShoulder1  9.6931 -21.5001 -32.6329
LeftArm  -25.6319 -41.2909 -14.3528
LeftForeArm  -12.0507 -28.864 -6.86178
LeftHand  -0.25398 0.0180481 5.50724
RightShoulder  4.2065 11.7975 21.1608
RightArm  -14.4312 41.9673 21.1988
RightForeArm  -53.5137 43.4071 13.0019
RightHand  -0.192576 -3.80237 -12.6609
LeftUpLeg  -46.9963 22.5368 -12.4488
LeftLeg  48.8317 4.25454 5.65526
LeftFoot  -1.26176 -0.114112 1.35541
LeftToes  1.06244e-005 4.65856e-005 -8.18505e-006
547
root  -34.9906 38.0527 21.1576 -15.4006 -79.0739 26.4467
RightUpLeg  -48.0634 -26.4097 12.9075
RightLeg  23.651 4.38713 1.88171
RightFoot  8.48418 2.36599 -13.1351
RightToes  0.00048216 0.542163 -0.142577
Spine  55.6934 -4.94871 9.34526
Spine1  13.7397 -0.192733 -0.342943
HEad  -23.5703 -11.4276 4.7127
LeftShoulder1  9.82329 -22.5535 -31.5438
LeftArm  -29.8592 -46.2767 -9.67742
LeftForeArm  -13.1052 -24.9171 -5.98033
LeftHand  -0.25398 0.0180481 5.50724
RightShoulder  4.14643 12.4744 19.5005
RightArm  -18.236 45.5947 18.3929
RightForeArm  -54.3934 38.6536 11.2482
RightHand  -0.211175 -3.35722 -10.887
LeftUpLeg  -48.3351 22.2472 -12.7401
LeftLeg  34.9 3.72811 3.24216
LeftFoot  0.234907 -0.0282976 0.352723
LeftToes  1.06244e-005 4.65856e-005 -8.18505e-006
548
root  -35.6281 37.9929 21.595 -11.5518 -80.8798 25.1232
RightUpLeg  -50.6627 -24.9517 14.1873
RightLeg  25.352 4.92676 2.31332
RightFoot  7.63319 2.25607 -13.1143
RightToes  0.00048216 0.542163 -0.142577
Spine  58.0154 -4.46602 9.34179
Spine1  12.8227 0.700915 -0.678833
HEad  -25.4717 -11.3569 5.33509
LeftShoulder1  10.0691 -23.7001 -30.8324
LeftArm  -34.5508 -49.8495 -3.93106
LeftForeArm  -14.0355 -21.6268 -5.42688
LeftHand  -0.25398 0.0180481 5.50724
RightShoulder  4.04394 12.9018 18.0965
RightArm  -22.1649 48.881 15.0445
RightForeArm  -54.1276 34.4624 9.89619
RightHand  -0.146259 -3.66448 -8.38732
LeftUpLeg  -48.9627 22.5689 -11.9595
LeftLeg  22.2636 0.957446 0.694326
LeftFoot  4.62486 0.298727 -2.28786
LeftToes  1.06244e-005 4.65856e-005 -8.18505e-006
549
root  -36.2562 37.8308 22.14 -8.25363 -82.7837 24.2338
RightUpLeg  -53.4868 -23.0164 14.7403
RightLeg  28.0511 4.46792 2.34235
RightFoot  6.17418 2.03153 -12.8444
RightToes  0.00048216 0.542163 -0.142577
Spine  60.2589 -4.08439 9.11378
Spine1  11.9772 1.61051 -1.39749
HEad  -26.6648 -11.2411 5.71038
LeftShoulder1  10.1988 -24.9929 -29.5623
LeftArm  -39.9523 -51.8515 1.32573
LeftForeArm  -14.0816 -18.7364 -5.14379
LeftHand  -0.25398 0.0180481 5.50724
RightShoulder  3.90199 13.256 16.6122
RightArm  -26.3502 51.3624 11.8501
RightForeArm  -52.8949 31.208 8.93535
RightHand  -0.129421 -3.33004 -6.21821
LeftUpLeg  -49.4402 22.0992 -10.4263
LeftLeg  14.8278 -0.569166 -1.14665
LeftFoot  10.5354 0.38266 -2.41827
LeftToes  1.06244e-005 4.65856e-005 -8.18505e-006
550
root  -36.8139 37.6502 22.7115 -8.81325 -83.6387 27.2281
RightUpLeg  -56.6983 -21.8014 14.3696
RightLeg  30.9819 3.72204 2.17014
RightFoot  4.85245 1.82561 -12.5372
RightToes  0.00048216 0.542163 -0.142577
Spine  62.4069 -3.94445 8.23808
Spine1  11.1346 1.85744 -1.72487
HEad  -27.5777 -10.9274 6.03554
LeftShoulder1  10.1266 -26.1317 -27.8767
LeftArm  -45.5509 -52.7726 6.11682
LeftForeArm  -13.8236 -16.2961 -4.66797
LeftHand  -0.25398 0.0180481 5.50724
RightShoulder  3.65855 13.5159 14.657
RightArm  -30.9582 53.2207 9.28054
RightForeArm  -50.7668 29.0949 8.3264
RightHand  -0.152295 -2.16588 -4.97641
LeftUpLeg  -51.2459 21.0231 -10.267
LeftLeg  14.0527 -0.480291 -2.91358
LeftFoot  14.4015 -0.417101 1.4601
LeftToes  1.06244e-005 4.65856e-005 -8.18505e-006
551
root  -37.3476 37.4693 23.2822 -9.8262 -83.7171 30.8085
RightUpLeg  -60.1993 -21.2568 13.8314
RightLeg  33.7657 3.13261 2.00056
RightFoot  3.84613 1.66094 -12.2015
RightToes  0.00048216 0.542163 -0.142577
Spine  64.1792 -3.99232 7.576
Spine1  9.9896 1.40417 -1.30748
HEad  -28.6907 -10.4971 6.54586
LeftShoulder1  9.91546 -26.8736 -26.2806
LeftArm  -51.4371 -53.4872 11.6497
LeftForeArm  -13.9033 -14.0333 -3.87786
LeftHand  -0.25398 0.0180481 5.50724
RightShoulder  3.3306 13.5018 12.5533
RightArm  -36.4025 54.8663 6.45711
RightForeArm  -47.8702 28.065 7.99814
RightHand  -0.152529 -1.33163 -4.08864
LeftUpLeg  -57.2658 24.9105 -18.8082
LeftLeg  17.5329 -7.71146 -3.19987
LeftFoot  14.6254 -1.37117 5.57948
LeftToes  1.06244e-005 4.65856e-005 -8.18505e-006
552
root  -37.8961 37.3356 23.8596 -8.55826 -83.976 32.2725
RightUpLeg  -63.3813 -20.5052 13.4334
RightLeg  35.7912 2.47428 1.65396
RightFoot  3.04302 1.47196 -11.4475
RightToes  0.00048216 0.542163 -0.142577
Spine  65.7037 -4.13366 7.45087
Spine1  8.86109 0.963581 -1.06344
HEad  -29.9818 -10.3098 7.16766
LeftShoulder1  9.53616 -27.2327 -24.5916
LeftArm  -57.6426 -54.2266 17.9229
LeftForeArm  -14.4378 -11.875 -2.82737
LeftHand  -0.25398 0.0180481 5.50724
RightShoulder  3.00221 13.3231 10.6257
RightArm  -42.7255 56.1112 2.6351
RightForeArm  -44.3069 27.628 7.80028
RightHand  -0.112954 -1.01631 -2.7916
LeftUpLeg  -62.2445 25.6061 -23.2071
LeftLeg  21.2375 -9.5564 -3.64648
LeftFoot  12.7986 -1.66954 7.42191
LeftToes  1.06244e-005 4.65856e-005 -8.18505e-006
553
root  -38.434 37.2816 24.4598 -7.85808 -84.8752 34.2915
RightUpLeg  -65.8634 -19.3461 13.0789
RightLeg  36.7561 1.81873 1.19215
RightFoot  2.5788 1.26356 -10.1723
RightToes  0.00048216 0.542163 -0.142577
Spine  67.2911 -4.25701 7.34835
Spine1  8.1517 1.03835 -1.73707
HEad  -30.9939 -10.5482 7.61133
LeftShoulder1  8.94444 -27.4338 -22.3742
LeftArm  -63.4091 -54.5102 23.4106
LeftForeArm  -15.0338 -10.268 -1.62529
LeftHand  -0.25398 0.0180481 5.50724
RightShoulder  2.724 13.3143 8.79432
RightArm  -49.1093 56.6028 -1.70278
RightForeArm  -40.0862 26.8916 7.49953
RightHand  -0.0416905 -0.0254645 -0.925824
LeftUpLeg  -65.9213 25.2864 -25.096
LeftLeg  23.8497 -9.1354 -4.06759
LeftFoot  10.9639 -1.72337 8.38488
LeftToes  1.06244e-005 4.65856e-005 -8.18505e-006
554
root  -38.9389 37.2892 25.065 -10.5476 -86.1301 39.4623
RightUpLeg  -67.7347 -18.267 12.8433
RightLeg  36.8884 1.45548 0.905516
RightFoot  2.505 1.09446 -8.8488
RightToes  0.00048216 0.542163 -0.142577
Spine  69.1553 -4.18676 7.01754
Spine1  7.29321 1.5443 -2.75054
HEad  -31.264 -11.1244 7.79692
LeftShoulder1  8.38532 -27.8324 -20.0804
LeftArm  -67.6493 -54.0726 27.0131
LeftForeArm  -15.4101 -9.47073 -0.518168
LeftHand  -0.25398 0.0180481 5.50724
RightShoulder  2.5294 13.5731 7.24356
RightArm  -54.5632 56.3859 -6.01881
RightForeArm  -35.5804 25.3102 6.97791
RightHand  0.0853291 2.24612 1.04739
LeftUpLeg  -68.9358 25.2933 -27.2113
LeftLeg  25.6142 -8.87355 -4.27719
LeftFoot  9.44396 -1.81744 9.5711
LeftToes  1.06244e-005 4.65856e-005 -8.18505e-006
555
root  -39.431 37.3212 25.6362 -19.1528 -87.3232 50.2106
RightUpLeg  -69.1219 -17.4792 12.7365
RightLeg  36.6015 1.2558 0.736173
RightFoot  2.38541 0.969176 -7.89634
RightToes  0.00048216 0.542163 -0.142577
Spine  70.9249 -4.133 6.67417
Spine1  6.61276 1.96517 -3.8226
HEad  -31.2968 -11.4077 8.21541
LeftShoulder1  7.46052 -27.961 -16.8108
LeftArm  -70.7644 -53.2734 28.9255
LeftForeArm  -16.337 -9.10703 0.562753
LeftHand  -0.25398 0.0180481 5.50724
RightShoulder  2.35327 13.9545 5.74103
RightArm  -60.6017 56.0639 -10.1975
RightForeArm  -30.8206 23.1783 6.33715
RightHand  0.255031 4.85641 2.52225
LeftUpLeg  -71.2006 25.246 -28.9064
LeftLeg  27.0171 -8.26238 -4.21659
LeftFoot  7.63604 -1.74665 10.1335
LeftToes  1.06244e-005 4.65856e-005 -8.18505e-006
556
root  -39.9172 37.3399 26.1633 -41.5531 -88.1049 74.5369
RightUpLeg  -70.2697 -16.8182 12.4476
RightLeg  36.2814 0.891468 0.438596
RightFoot  1.87659 0.844888 -7.16478
RightToes  0.00048216 0.542163 -0.142577
Spine  72.3899 -4.03616 6.48452
Spine1  6.05282 2.29509 -4.6723
HEad  -31.1825 -11.8813 8.67639
LeftShoulder1  6.47299 -27.9646 -13.4036
LeftArm  -73.2255 -52.6707 29.8633
LeftForeArm  -17.8613 -8.74481 1.56023
LeftHand  -0.25398 0.0180481 5.50724
RightShoulder  2.16733 14.0451 4.46644
RightArm  -67.0854 55.5905 -13.8637
RightForeArm  -26.3479 21.5895 5.82416
RightHand  0.382482 6.69753 3.23137
LeftUpLeg  -72.9794 24.8445 -29.9273
LeftLeg  28.3359 -7.30918 -3.91349
LeftFoot  5.63485 -1.51192 9.87214
LeftToes  1.06244e-005 4.65856e-005 -8.18505e-006
557
root  -40.3604 37.314 26.6629 -78.2585 -88.0236 113.05
RightUpLeg  -71.5319 -16.2101 11.8205
RightLeg  36.2386 0.422121 0.0675132
RightFoot  1.24445 0.704715 -6.3019
RightToes  0.00048216 0.542163 -0.142577
Spine  73.1824 -3.91866 6.26928
Spine1  5.9389 2.51457 -5.38783
HEad  -30.9656 -12.5908 8.88543
LeftShoulder1  5.63956 -27.9452 -10.515
LeftArm  -75.2973 -52.2665 30.2987
LeftForeArm  -19.3945 -8.4475 2.45733
LeftHand  -0.25398 0.0180481 5.50724
RightShoulder  1.95364 13.7244 3.3262
RightArm  -72.8376 55.1975 -16.3644
RightForeArm  -22.7537 21.0393 5.45665
RightHand  0.438013 7.67028 3.4118
LeftUpLeg  -74.5644 24.1793 -30.8806
LeftLeg  29.6124 -6.28248 -3.50459
LeftFoot  3.92961 -1.34292 9.81739
LeftToes  1.06244e-005 4.65856e-005 -8.18505e-006
